<svg width="566" height="964" viewBox="0 0 566 964" fill="none" xmlns="http://www.w3.org/2000/svg">
<path fill-rule="evenodd" clip-rule="evenodd" d="M306.5 1.50003C300.274 1.38803 294.274 2.05403 288.5 3.50003C205.077 17.467 139.91 59.467 93 129.5C43.283 211.508 35.283 297.508 69 387.5C99.322 458.655 149.822 509.655 220.5 540.5C220.5 592.5 220.5 644.5 220.5 696.5C205.167 696.5 189.833 696.5 174.5 696.5C174.5 644.5 174.5 592.5 174.5 540.5C169.398 538.783 164.398 536.783 159.5 534.5C144.201 526.518 129.534 517.518 115.5 507.5C55.873 460.947 19.207 400.281 5.50001 325.5C3.01601 304.913 2.01601 284.247 2.50001 263.5C9.28201 187.273 40.615 123.273 96.5 71.5C156.701 19.08 226.701 -4.25297 306.5 1.50003Z" fill="#FEE560"/>
<path fill-rule="evenodd" clip-rule="evenodd" d="M306.5 1.50001C408.45 12.361 484.283 62.361 534 151.5C571.908 228.516 575.574 307.183 545 387.5C513.576 460.757 461.076 512.757 387.5 543.5C386.808 598.512 386.142 653.512 385.5 708.5C384.517 704.702 384.183 700.702 384.5 696.5C372.5 696.5 360.5 696.5 348.5 696.5C348.167 645.496 348.5 594.496 349.5 543.5C438.297 505.534 495.13 439.868 520 346.5C540.16 248.121 516.827 161.788 450 87.5C405.52 42.006 351.687 14.006 288.5 3.50001C294.274 2.05401 300.274 1.38801 306.5 1.50001Z" fill="#D9BB19"/>
<path fill-rule="evenodd" clip-rule="evenodd" d="M288.5 3.5C351.687 14.006 405.52 42.006 450 87.5C516.827 161.788 540.16 248.121 520 346.5C495.13 439.868 438.297 505.534 349.5 543.5C348.5 594.496 348.167 645.496 348.5 696.5C305.833 696.5 263.167 696.5 220.5 696.5C220.5 644.5 220.5 592.5 220.5 540.5C149.822 509.655 99.322 458.655 69 387.5C35.283 297.508 43.283 211.508 93 129.5C139.91 59.467 205.077 17.467 288.5 3.5Z" fill="#FEDB1D"/>
<path fill-rule="evenodd" clip-rule="evenodd" d="M96.5 71.5C40.615 123.273 9.28201 187.273 2.50001 263.5C1.63301 273.797 1.13301 286.13 1.00001 300.5C-3.53999 209.743 27.293 133.576 93.5 72C94.448 71.517 95.448 71.351 96.5 71.5Z" fill="#6AC3EB"/>
<path fill-rule="evenodd" clip-rule="evenodd" d="M319.5 673.5C318.662 673.158 318.328 672.492 318.5 671.5C320.079 591.163 321.746 510.83 323.5 430.5C297.5 430.5 271.5 430.5 245.5 430.5C249.028 510.813 252.028 591.146 254.5 671.5C254.784 673.415 254.451 675.081 253.5 676.5C247.941 594.539 242.941 512.539 238.5 430.5C213.498 430.667 188.498 430.5 163.5 430C134.213 425.712 116.047 409.212 109 380.5C104.169 354.286 110.336 331.119 127.5 311C145.446 295.679 166.113 290.346 189.5 295C216.336 300.169 233.17 316.002 240 342.5C242.975 367.385 244.475 392.385 244.5 417.5C270.833 417.5 297.167 417.5 323.5 417.5C323.072 393.466 323.572 369.466 325 345.5C332.098 317.405 349.931 300.571 378.5 295C400.228 292.143 419.895 297.143 437.5 310C456.465 328.667 463.298 351.167 458 377.5C453.691 399.625 441.191 415.125 420.5 424C412.805 427.232 404.805 429.232 396.5 430C374.503 430.5 352.503 430.667 330.5 430.5C327.625 511.537 323.959 592.537 319.5 673.5Z" fill="#091010"/>
<path fill-rule="evenodd" clip-rule="evenodd" d="M236.5 408.5C236.5 411.5 236.5 414.5 236.5 417.5C213.833 417.5 191.167 417.5 168.5 417.5C143.756 415.888 127.923 403.221 121 379.5C115.817 358.236 119.817 338.902 133 321.5C141.355 312.738 151.522 307.238 163.5 305C201.037 300.163 224.204 315.997 233 352.5C234.084 371.179 235.251 389.846 236.5 408.5Z" fill="#FEDB1D"/>
<path fill-rule="evenodd" clip-rule="evenodd" d="M381.5 304.5C403.445 302.755 421.945 309.755 437 325.5C446.146 338.421 449.479 352.754 447 368.5C443.58 397.254 427.413 413.42 398.5 417C376.169 417.5 353.836 417.667 331.5 417.5C331.877 396.165 332.377 374.832 333 353.5C335.314 333.028 345.814 318.528 364.5 310C370.232 307.992 375.898 306.158 381.5 304.5Z" fill="#FDDB1D"/>
<path fill-rule="evenodd" clip-rule="evenodd" d="M236.5 408.5C237.479 411.625 237.813 414.958 237.5 418.5C214.327 418.831 191.327 418.498 168.5 417.5C191.167 417.5 213.833 417.5 236.5 417.5C236.5 414.5 236.5 411.5 236.5 408.5Z" fill="#565314"/>
<path fill-rule="evenodd" clip-rule="evenodd" d="M5.5 325.5C19.207 400.281 55.873 460.947 115.5 507.5C114.883 507.611 114.383 507.944 114 508.5C55.194 463.604 18.694 404.604 4.5 331.5C4.84 329.488 5.173 327.488 5.5 325.5Z" fill="#6CC3E9"/>
<path fill-rule="evenodd" clip-rule="evenodd" d="M159.5 534.5C164.398 536.783 169.398 538.783 174.5 540.5C174.5 592.5 174.5 644.5 174.5 696.5C173.5 696.5 172.5 696.5 171.5 696.5C171.667 644.832 171.5 593.166 171 541.5C166.78 539.488 162.946 537.155 159.5 534.5Z" fill="#5FC0EB"/>
<path fill-rule="evenodd" clip-rule="evenodd" d="M254.5 671.5C255.654 677.987 255.821 684.654 255 691.5C254.252 686.519 253.752 681.519 253.5 676.5C254.451 675.081 254.784 673.415 254.5 671.5Z" fill="#948317"/>
<path fill-rule="evenodd" clip-rule="evenodd" d="M318.5 671.5C318.328 672.492 318.662 673.158 319.5 673.5C319.827 678.214 319.493 682.88 318.5 687.5C317.185 682.014 317.185 676.68 318.5 671.5Z" fill="#9E8C18"/>
<path fill-rule="evenodd" clip-rule="evenodd" d="M174.5 697.5C174.5 697.167 174.5 696.833 174.5 696.5C189.833 696.5 205.167 696.5 220.5 696.5C263.167 696.5 305.833 696.5 348.5 696.5C360.5 696.5 372.5 696.5 384.5 696.5C384.183 700.702 384.517 704.702 385.5 708.5C385.167 709.833 384.833 711.167 384.5 712.5C384.167 712.5 383.833 712.5 383.5 712.5C383.5 707.5 383.5 702.5 383.5 697.5C313.833 697.5 244.167 697.5 174.5 697.5Z" fill="#8F813B"/>
<path fill-rule="evenodd" clip-rule="evenodd" d="M174.5 697.5C244.167 697.5 313.833 697.5 383.5 697.5C383.5 702.5 383.5 707.5 383.5 712.5C382.514 708.03 382.181 703.363 382.5 698.5C312.998 698.833 243.665 698.499 174.5 697.5Z" fill="#363A4F"/>
<path fill-rule="evenodd" clip-rule="evenodd" d="M173.5 697.5C173.833 697.5 174.167 697.5 174.5 697.5C243.665 698.499 312.998 698.833 382.5 698.5C382.181 703.363 382.514 708.03 383.5 712.5C383.833 712.5 384.167 712.5 384.5 712.5C384.831 733.34 384.497 754.007 383.5 774.5C383.667 754.164 383.5 733.831 383 713.5C313.238 714.498 243.404 714.831 173.5 714.5C173.5 708.833 173.5 703.167 173.5 697.5Z" fill="#4B4C4C"/>
<path fill-rule="evenodd" clip-rule="evenodd" d="M345.5 721.5C345.5 730.833 345.5 740.167 345.5 749.5C288.167 749.5 230.833 749.5 173.5 749.5C173.5 740.167 173.5 730.833 173.5 721.5C230.833 721.5 288.167 721.5 345.5 721.5Z" fill="#4C4C4C"/>
<path fill-rule="evenodd" clip-rule="evenodd" d="M345.5 721.5C357.833 721.5 370.167 721.5 382.5 721.5C382.5 730.833 382.5 740.167 382.5 749.5C370.167 749.5 357.833 749.5 345.5 749.5C345.5 740.167 345.5 730.833 345.5 721.5Z" fill="#424242"/>
<path fill-rule="evenodd" clip-rule="evenodd" d="M171.5 696.5C172.5 696.5 173.5 696.5 174.5 696.5C174.5 696.833 174.5 697.167 174.5 697.5C174.167 697.5 173.833 697.5 173.5 697.5C172.502 722.661 172.169 747.995 172.5 773.5C171.502 748.005 171.169 722.339 171.5 696.5Z" fill="#3880A0"/>
<path fill-rule="evenodd" clip-rule="evenodd" d="M383.5 774.5C383.5 775.833 383.5 777.167 383.5 778.5C382.508 771.018 382.175 763.352 382.5 755.5C312.833 755.5 243.167 755.5 173.5 755.5C173.5 753.5 173.5 751.5 173.5 749.5C230.833 749.5 288.167 749.5 345.5 749.5C357.833 749.5 370.167 749.5 382.5 749.5C382.5 740.167 382.5 730.833 382.5 721.5C370.167 721.5 357.833 721.5 345.5 721.5C288.336 720.501 231.002 720.168 173.5 720.5C173.5 718.5 173.5 716.5 173.5 714.5C243.404 714.831 313.238 714.498 383 713.5C383.5 733.831 383.667 754.164 383.5 774.5Z" fill="#383837"/>
<path fill-rule="evenodd" clip-rule="evenodd" d="M341.5 783.5C285.572 784.496 229.572 784.829 173.5 784.5C173.037 781.518 172.704 778.518 172.5 775.5C173.49 769.355 173.823 763.022 173.5 756.5C230.5 756.5 287.5 756.5 344.5 756.5C343.989 765.549 342.989 774.549 341.5 783.5Z" fill="#4C4C4C"/>
<path fill-rule="evenodd" clip-rule="evenodd" d="M173.5 697.5C173.5 703.167 173.5 708.833 173.5 714.5C173.5 716.5 173.5 718.5 173.5 720.5C231.002 720.168 288.336 720.501 345.5 721.5C288.167 721.5 230.833 721.5 173.5 721.5C173.5 730.833 173.5 740.167 173.5 749.5C173.5 751.5 173.5 753.5 173.5 755.5C243.167 755.5 312.833 755.5 382.5 755.5C382.175 763.352 382.508 771.018 383.5 778.5C382.912 781.61 382.245 784.61 381.5 787.5C381.67 786.178 381.337 785.011 380.5 784C367.504 783.5 354.504 783.333 341.5 783.5C342.989 774.549 343.989 765.549 344.5 756.5C287.5 756.5 230.5 756.5 173.5 756.5C173.823 763.022 173.49 769.355 172.5 775.5C172.5 774.833 172.5 774.167 172.5 773.5C172.169 747.995 172.502 722.661 173.5 697.5Z" fill="#424241"/>
<path fill-rule="evenodd" clip-rule="evenodd" d="M341.5 783.5C354.504 783.333 367.504 783.5 380.5 784C381.337 785.011 381.67 786.178 381.5 787.5C381.5 787.833 381.5 788.167 381.5 788.5C379.797 784.912 378.797 785.578 378.5 790.5C365.167 790.5 351.833 790.5 338.5 790.5C284.095 790.171 229.762 790.505 175.5 791.5C174.985 789.106 174.319 786.772 173.5 784.5C229.572 784.829 285.572 784.496 341.5 783.5Z" fill="#383737"/>
<path fill-rule="evenodd" clip-rule="evenodd" d="M338.5 790.5C335.21 800.579 330.21 809.745 323.5 818C279.501 818.5 235.501 818.667 191.5 818.5C183.89 810.962 178.557 801.962 175.5 791.5C229.762 790.505 284.095 790.171 338.5 790.5Z" fill="#4D4C4C"/>
<path fill-rule="evenodd" clip-rule="evenodd" d="M381.5 788.5C371.104 821.222 348.771 839.222 314.5 842.5C314.817 846.7 314.483 850.7 313.5 854.5C313.5 850.83 313.5 847.17 313.5 843.5C290.833 843.5 268.167 843.5 245.5 843.5C245.5 843.17 245.5 842.83 245.5 842.5C259.504 842.67 273.504 842.5 287.5 842C285.833 841.667 284.167 841.333 282.5 841C294.78 838.696 305.78 833.696 315.5 826C276.501 825.5 237.501 825.333 198.5 825.5C195.145 824.145 192.811 821.811 191.5 818.5C235.501 818.667 279.501 818.5 323.5 818C330.21 809.745 335.21 800.579 338.5 790.5C351.833 790.5 365.167 790.5 378.5 790.5C378.797 785.578 379.797 784.912 381.5 788.5Z" fill="#3D3D3D"/>
<path fill-rule="evenodd" clip-rule="evenodd" d="M198.5 825.5C237.501 825.333 276.501 825.5 315.5 826C305.78 833.696 294.78 838.696 282.5 841C284.167 841.333 285.833 841.667 287.5 842C273.504 842.5 259.504 842.67 245.5 842.5C227.475 842.94 211.808 837.273 198.5 825.5Z" fill="#4D4D4D"/>
<path fill-rule="evenodd" clip-rule="evenodd" d="M245.5 843.5C268.167 843.5 290.833 843.5 313.5 843.5C313.5 847.17 313.5 850.83 313.5 854.5C311.532 861.63 306.865 865.8 299.5 867C284.778 867.93 270.112 867.6 255.5 866C247.061 860.87 243.728 853.37 245.5 843.5Z" fill="#333333"/>
<path fill-rule="evenodd" clip-rule="evenodd" d="M239.5 917.5C289.909 916.62 340.243 918.12 390.5 922C407.628 923.46 424.628 925.79 441.5 929C448.362 930.38 455.028 932.38 461.5 935C467.008 937.16 467.675 940.16 463.5 944C455.807 947.59 447.807 950.26 439.5 952C401.392 957.81 363.058 961.15 324.5 962C258.921 964.74 193.587 962.08 128.5 954C119.471 952.13 110.471 950.13 101.5 948C97.49 946.66 93.99 944.49 91 941.5C90.333 940.5 90.333 939.5 91 938.5C97.938 933.29 105.771 930.12 114.5 929C124.772 926.96 135.106 925.29 145.5 924C176.918 920.78 208.251 918.61 239.5 917.5Z" fill="#259ACC"/>
</svg>
